<?xml version="1.0" encoding="utf-8"?>
<!-- Generator: Adobe Illustrator 18.0.0, SVG Export Plug-In . SVG Version: 6.00 Build 0)  -->
<!DOCTYPE svg PUBLIC "-//W3C//DTD SVG 1.1//EN" "http://www.w3.org/Graphics/SVG/1.1/DTD/svg11.dtd">
<svg version="1.1" id="Layer_1" xmlns="http://www.w3.org/2000/svg" xmlns:xlink="http://www.w3.org/1999/xlink" x="0px" y="0px"
	 viewBox="0 0 1080 1080" enable-background="new 0 0 1080 1080" xml:space="preserve">
<g>
	<g opacity="0.55">
		<g>
			<defs>
				<rect id="SVGID_1_" x="329.3" y="383.5" width="37.2" height="62.3"/>
			</defs>
			<clipPath id="SVGID_2_">
				<use xlink:href="#SVGID_1_"  overflow="visible"/>
			</clipPath>
		</g>
	</g>
</g>
<g>
	<g>
		<path fill="#0B77B5" d="M667.5,463.1c-42.5,0-76.9,34.4-76.9,76.9c0,6.5,0.8,12.8,2.3,18.9c0.3,1.3,0.7,2.6,1.1,3.8
			c2.3,7.5,5.7,14.5,10.1,20.8c0.4,0.6,0.8,1.2,1.2,1.7c14,19.2,36.6,31.7,62.2,31.7c31.7,0,58.9-19.2,70.7-46.6
			c0.3-0.6,0.5-1.2,0.8-1.8c2.7-6.6,4.4-13.7,5.1-21.1c0.1-1,0.2-2,0.2-2.9c0.1-1.5,0.1-2.9,0.1-4.4
			C744.4,497.5,710,463.1,667.5,463.1 M667.5,490.8c7.8,0,14.2,6.3,14.2,14.2c0,1.7-0.3,3.3-0.8,4.7c-0.5,2.5-8.2,14.7-13.3,23.7
			c-4.4-7.6-10.2-17.2-12.4-21.7c-0.1-0.1-0.1-0.2-0.2-0.4c-0.1-0.1-0.1-0.2-0.2-0.4c-0.1-0.2-0.2-0.4-0.2-0.5
			c-0.1-0.2-0.1-0.4-0.2-0.5c0-0.1-0.1-0.2-0.1-0.2c-0.5-1.5-0.8-3.1-0.8-4.7C653.3,497.1,659.7,490.8,667.5,490.8 M707.3,570.6
			h-26.8l-13-20.4l-13,20.4h-26.8c-3,0-5.1-3-4-5.8l12-30.5c1.8-4.6,6.2-7.5,11.1-7.5h5.2c1.5,0,2.8,0.8,3.6,2l11.8,19.2l11.8-19.2
			c0.8-1.3,2.1-2,3.6-2h5.3c4.9,0,9.3,3,11.1,7.5l12,30.5C712.4,567.6,710.3,570.6,707.3,570.6"/>
	</g>
	<g>
		<path fill="#0B77B5" d="M422.4,566.4c1.1,0,2-0.9,2-2c0-0.2,0-0.4-0.1-0.6l-8.5-47.5c-0.2-1-1-1.6-2-1.6h-16.2
			c-4.9,0-9.1,1.7-11.8,4.9c-2,2.4-4.2,6.9-2.9,14.4l3.3,19h-24.9c-6.8,0-12.3-5.6-12.3-12.4c0-6.9,5.6-12.4,12.4-12.4l11.9-0.1
			c0.6,0,1.1-0.3,1.5-0.7s0.5-1,0.4-1.6l-1.7-9.4c-0.2-1-1-1.7-2-1.7h-10.2c-14.3,0-25.9,11.6-25.9,25.9c0,14.1,11.6,25.7,25.8,25.9
			h38.5c0.6,0,1.2-0.3,1.5-0.7c0.4-0.5,0.5-1,0.4-1.6l-5.2-30c-0.4-2.1-0.1-3.8,0.8-4.8c0.6-0.7,1.5-1.1,2.6-1.1h4.5l6.5,36.6
			c0.2,1,1,1.7,2,1.7H422.4C422.4,566.4,422.4,566.4,422.4,566.4z"/>
		<path fill="#0B77B5" d="M382.1,569.1c-2,0-3.8,0.8-5.2,2.1c-1.3-1.4-3.2-2.2-5.2-2.2c-4.1,0-7.4,3.3-7.4,7.4
			c0,4.1,3.3,7.4,7.4,7.4c2,0,3.8-0.8,5.2-2.2c1.4,1.4,3.2,2.2,5.2,2.2c4.1,0,7.4-3.3,7.4-7.4C389.5,572.4,386.2,569.1,382.1,569.1z
			"/>
		<path fill="#0B77B5" d="M437.9,516.2c-0.2-1-1-1.6-2-1.6h-9.4c-0.6,0-1.2,0.3-1.5,0.7c-0.4,0.5-0.5,1.1-0.4,1.6l5.5,30.8
			c1.8,10.2-1.3,19.9-9.3,28.8c-0.7,0.8-0.7,1.9,0,2.7l6.7,7.5c0.4,0.4,0.9,0.7,1.5,0.7c0.5,0,0.9-0.2,1.3-0.5
			c7.1-6.1,16.2-22.8,13.2-39.6L437.9,516.2z"/>
		<path fill="#0B77B5" d="M571.1,563.7l-5.2-29.2c-2.5-14-12.4-22.4-26.7-22.4c-14.9,0-27,12.1-27,27c0,5.1,1.9,9.9,5,13.6h-7.5
			l-6.4-36.6c-0.1-0.7-0.6-1.3-1.2-1.5c-0.6-0.3-1.4-0.2-1.9,0.2l-8.4,6.2c-0.6,0.4-0.9,1.2-0.8,2l5.2,29.7h-1.9l-6.3-36.6
			c-0.1-0.7-0.6-1.3-1.2-1.5c-0.6-0.3-1.4-0.2-1.9,0.2l-8.4,6.2c-0.6,0.4-0.9,1.2-0.8,2l5.2,29.7h-2l-6.4-36.5
			c-0.1-0.7-0.6-1.3-1.2-1.5c-0.6-0.3-1.4-0.2-1.9,0.3l-8.4,6.2c-0.6,0.5-0.9,1.2-0.8,2l5.2,29.7H460l-10.4-58.6c-0.2-1-1-1.6-2-1.6
			h-9.6c-0.6,0-1.2,0.3-1.5,0.7s-0.5,1.1-0.4,1.6l12.4,69.7c0.2,1,1,1.6,2,1.6h9.6c0,0,0,0,0,0c0.3,0,0.6-0.1,0.8-0.2
			c0.3,0.1,0.5,0.2,0.8,0.2h48c0.2,0,0.3,0,0.5-0.1l59.1,0.1c0,0,0,0,0,0c0,0,0,0,0,0c1.1,0,2-0.9,2-2
			C571.2,564.1,571.2,563.9,571.1,563.7z M525.5,539.2c0-7.6,6.2-13.7,13.7-13.7c7.9,0,12.5,5.9,13.5,11.5l2.9,16.1l-16.3,0
			C531.7,552.9,525.5,546.8,525.5,539.2z"/>
	</g>
	<g>
		<path fill="#0B77B5" d="M455.5,585.1h-2v-5.9c0-0.4,0-0.7-0.1-0.8c-0.1-0.1-0.2-0.2-0.3-0.2c-0.3,0-0.7,0.4-0.9,1.1v5.7h-2v-8.9h2
			l-0.1,1.7h0.1c0.2-0.5,0.4-1,0.8-1.4c0.3-0.4,0.7-0.6,1.1-0.6c0.4,0,0.7,0.1,1,0.4c0.3,0.3,0.4,0.8,0.5,1.5h0.1
			c0.2-0.5,0.4-1,0.7-1.4c0.3-0.4,0.6-0.5,1-0.5c0.3,0,0.6,0.1,0.8,0.3c0.2,0.2,0.4,0.5,0.5,0.8c0.1,0.4,0.2,1,0.2,2.1v5.9h-2v-5.9
			c0-0.4,0-0.7-0.1-0.8c-0.1-0.1-0.2-0.2-0.3-0.2c-0.3,0-0.7,0.4-0.9,1.1V585.1z"/>
		<path fill="#0B77B5" d="M460.8,584.8v-1.8c1.4,0.5,2.4,0.7,3.2,0.7c0.5,0,1-0.1,1.3-0.2c0.3-0.2,0.5-0.4,0.5-0.7
			c0-0.2-0.1-0.4-0.2-0.5c-0.2-0.1-0.4-0.3-0.6-0.4l-1.9-0.7c-1.5-0.6-2.2-1.4-2.2-2.3c0-0.5,0.2-1,0.5-1.4c0.3-0.4,0.8-0.8,1.3-1
			c0.6-0.2,1.4-0.3,2.4-0.3c0.8,0,1.7,0.1,2.7,0.3v1.9c-1.1-0.4-2-0.6-2.8-0.6c-0.5,0-0.9,0.1-1.2,0.2c-0.3,0.1-0.5,0.3-0.5,0.6
			c0,0.2,0.1,0.3,0.2,0.4c0.1,0.1,0.5,0.3,1,0.5l2.1,0.9c0.7,0.3,1.2,0.6,1.5,1c0.2,0.4,0.4,0.8,0.4,1.3c0,0.5-0.2,1-0.5,1.4
			c-0.3,0.4-0.8,0.8-1.4,1c-0.6,0.3-1.3,0.4-2.1,0.4c-0.3,0-0.8,0-1.3-0.1C462.8,585.2,462,585,460.8,584.8z"/>
		<path fill="#0B77B5" d="M475.7,584.1c-0.3,0.4-0.6,0.7-1,0.9c-0.4,0.2-0.9,0.3-1.4,0.3c-0.8,0-1.5-0.3-2.1-0.8
			c-0.6-0.5-0.9-1.2-0.9-2c0-0.6,0.1-1.1,0.4-1.6c0.3-0.5,0.7-0.8,1.4-1.1c0.6-0.3,1.6-0.4,2.8-0.4h0.9V579c0-0.5-0.2-0.8-0.5-1
			c-0.3-0.2-0.8-0.3-1.4-0.3c-0.9,0-1.8,0.3-2.9,0.8v-1.8c0.7-0.2,1.3-0.4,1.8-0.5c0.6-0.1,1.1-0.1,1.5-0.1c0.8,0,1.4,0.1,2,0.3
			c0.6,0.2,1,0.5,1.4,0.9c0.4,0.4,0.5,1.2,0.5,2.3v3c0,0.3,0,0.5,0.1,0.6c0,0.1,0.1,0.2,0.2,0.2c0.1,0,0.2,0.1,0.3,0.1
			c0.1,0,0.2,0,0.3,0v1.6c-0.5,0.2-0.9,0.3-1.3,0.3c-0.3,0-0.5,0-0.8-0.1c-0.2-0.1-0.4-0.2-0.6-0.3c-0.2-0.1-0.4-0.4-0.5-0.7H475.7z
			 M475.9,582.5V581H475c-1,0-1.6,0.1-1.9,0.4c-0.3,0.3-0.4,0.6-0.4,0.9c0,0.3,0.1,0.6,0.4,0.8c0.2,0.2,0.5,0.3,0.9,0.3
			c0.2,0,0.5-0.1,0.9-0.2C475.2,583.1,475.5,582.8,475.9,582.5z"/>
		<path fill="#0B77B5" d="M481.5,585.1v-8.9h2.4l-0.1,1.7h0.1c0.3-0.5,0.6-0.9,0.9-1.1c0.3-0.2,0.7-0.4,1-0.6
			c0.4-0.1,0.8-0.2,1.3-0.2c0.5,0,1,0.1,1.7,0.2v3.6h-1.6v-1.7c-0.2,0-0.3,0-0.4,0c-0.4,0-0.7,0.1-1.1,0.2c-0.3,0.1-0.7,0.3-0.9,0.5
			c-0.3,0.2-0.6,0.6-0.9,1.1v5.2H481.5z"/>
		<path fill="#0B77B5" d="M499.1,584.7c-1.4,0.4-2.6,0.6-3.6,0.6c-1,0-1.9-0.2-2.6-0.6c-0.8-0.4-1.3-0.9-1.7-1.6
			c-0.4-0.7-0.6-1.5-0.6-2.4c0-0.9,0.2-1.7,0.6-2.4c0.4-0.7,0.9-1.3,1.7-1.7c0.7-0.4,1.5-0.6,2.4-0.6c1.2,0,2.2,0.4,2.9,1.2
			s1.1,1.9,1.1,3.2v0.9h-6c0.1,0.7,0.4,1.2,0.9,1.6c0.5,0.4,1.2,0.5,2,0.5c0.9,0,1.9-0.2,3.1-0.6V584.7z M493.1,579.7h3.7
			c0-1.4-0.6-2.1-1.8-2.1c-0.6,0-1,0.2-1.4,0.6C493.3,578.5,493.1,579,493.1,579.7z"/>
		<path fill="#0B77B5" d="M503.5,585.1v-2.8h2.8v2.8H503.5z"/>
		<path fill="#0B77B5" d="M519,584.9c-0.4,0.1-0.7,0.2-1.1,0.2c-0.4,0.1-0.7,0.1-1.1,0.1c-0.4,0-0.7,0-1,0c-1.6,0-2.8-0.4-3.8-1.2
			c-0.9-0.8-1.4-1.9-1.4-3.4c0-1.4,0.4-2.5,1.3-3.4c0.8-0.9,2.1-1.3,3.8-1.3c1.1,0,2.2,0.1,3.2,0.4v1.8c-1-0.4-2-0.6-2.9-0.6
			c-0.7,0-1.4,0.2-1.9,0.7c-0.5,0.5-0.8,1.1-0.8,2.1c0,0.6,0.1,1.2,0.4,1.7c0.3,0.5,0.6,0.9,1.2,1.1c0.5,0.3,1.1,0.4,1.8,0.4
			c0.7,0,1.5-0.1,2.3-0.4V584.9z"/>
		<path fill="#0B77B5" d="M525,585.3c-1.3,0-2.4-0.4-3.3-1.2c-0.9-0.8-1.4-1.9-1.4-3.5c0-1.5,0.5-2.7,1.4-3.4c0.9-0.8,2-1.2,3.3-1.2
			c1.3,0,2.4,0.4,3.3,1.2c0.9,0.8,1.4,1.9,1.4,3.4c0,1.5-0.5,2.7-1.4,3.5C527.4,584.9,526.3,585.3,525,585.3z M525,583.6
			c0.6,0,1.1-0.2,1.5-0.7c0.4-0.5,0.5-1.2,0.5-2.3s-0.2-1.8-0.6-2.3c-0.4-0.5-0.9-0.7-1.5-0.7s-1.1,0.2-1.5,0.7
			c-0.4,0.5-0.5,1.2-0.5,2.3s0.2,1.8,0.5,2.3C523.9,583.4,524.4,583.6,525,583.6z"/>
		<path fill="#0B77B5" d="M536.1,585.1h-2v-5.9c0-0.4,0-0.7-0.1-0.8c-0.1-0.1-0.2-0.2-0.3-0.2c-0.3,0-0.7,0.4-0.9,1.1v5.7h-2v-8.9h2
			l-0.1,1.7h0.1c0.2-0.5,0.4-1,0.8-1.4c0.3-0.4,0.7-0.6,1.1-0.6c0.4,0,0.7,0.1,1,0.4c0.3,0.3,0.4,0.8,0.5,1.5h0.1
			c0.2-0.5,0.4-1,0.7-1.4c0.3-0.4,0.6-0.5,1-0.5c0.3,0,0.6,0.1,0.8,0.3c0.2,0.2,0.4,0.5,0.5,0.8c0.1,0.4,0.2,1,0.2,2.1v5.9h-2v-5.9
			c0-0.4,0-0.7-0.1-0.8c-0.1-0.1-0.2-0.2-0.3-0.2c-0.3,0-0.7,0.4-0.9,1.1V585.1z"/>
		<path fill="#0B77B5" d="M543.7,585.1v-2.8h2.8v2.8H543.7z"/>
		<path fill="#0B77B5" d="M551.5,584.8v-1.8c1.4,0.5,2.4,0.7,3.2,0.7c0.5,0,1-0.1,1.3-0.2c0.3-0.2,0.5-0.4,0.5-0.7
			c0-0.2-0.1-0.4-0.2-0.5c-0.2-0.1-0.4-0.3-0.6-0.4l-1.9-0.7c-1.5-0.6-2.2-1.4-2.2-2.3c0-0.5,0.2-1,0.5-1.4c0.3-0.4,0.8-0.8,1.3-1
			s1.4-0.3,2.4-0.3c0.8,0,1.7,0.1,2.7,0.3v1.9c-1.1-0.4-2-0.6-2.8-0.6c-0.5,0-0.9,0.1-1.2,0.2c-0.3,0.1-0.5,0.3-0.5,0.6
			c0,0.2,0.1,0.3,0.2,0.4c0.1,0.1,0.5,0.3,1,0.5l2.1,0.9c0.7,0.3,1.2,0.6,1.5,1c0.2,0.4,0.4,0.8,0.4,1.3c0,0.5-0.2,1-0.5,1.4
			c-0.3,0.4-0.8,0.8-1.4,1c-0.6,0.3-1.3,0.4-2.1,0.4c-0.3,0-0.8,0-1.3-0.1C553.4,585.2,552.6,585,551.5,584.8z"/>
		<path fill="#0B77B5" d="M566.3,584.1c-0.3,0.4-0.6,0.7-1,0.9c-0.4,0.2-0.9,0.3-1.4,0.3c-0.8,0-1.5-0.3-2.1-0.8
			c-0.6-0.5-0.9-1.2-0.9-2c0-0.6,0.1-1.1,0.4-1.6c0.3-0.5,0.7-0.8,1.4-1.1c0.6-0.3,1.6-0.4,2.8-0.4h0.9V579c0-0.5-0.2-0.8-0.5-1
			s-0.8-0.3-1.4-0.3c-0.9,0-1.8,0.3-2.9,0.8v-1.8c0.7-0.2,1.3-0.4,1.8-0.5c0.6-0.1,1.1-0.1,1.5-0.1c0.8,0,1.4,0.1,2,0.3
			c0.6,0.2,1,0.5,1.4,0.9c0.4,0.4,0.5,1.2,0.5,2.3v3c0,0.3,0,0.5,0.1,0.6s0.1,0.2,0.2,0.2c0.1,0,0.2,0.1,0.3,0.1c0.1,0,0.2,0,0.3,0
			v1.6c-0.5,0.2-0.9,0.3-1.3,0.3c-0.3,0-0.5,0-0.8-0.1c-0.2-0.1-0.4-0.2-0.6-0.3c-0.2-0.1-0.4-0.4-0.5-0.7H566.3z M566.6,582.5V581
			h-0.9c-1,0-1.6,0.1-1.9,0.4c-0.3,0.3-0.4,0.6-0.4,0.9c0,0.3,0.1,0.6,0.4,0.8c0.2,0.2,0.5,0.3,0.9,0.3c0.2,0,0.5-0.1,0.9-0.2
			C565.8,583.1,566.2,582.8,566.6,582.5z"/>
	</g>
</g>
</svg>
